<svg width="173" height="28" viewBox="0 0 173 28" fill="none" xmlns="http://www.w3.org/2000/svg">
<path d="M21.5354 12.0672C17.865 12.0672 14.8856 9.09918 14.8856 5.45141C14.8856 4.97561 14.9423 4.52247 15.0329 4.06934H6.19667C2.77548 4.06934 0 6.83348 0 10.232V21.6171C0 25.027 2.77548 27.7798 6.19667 27.7798H17.6384C21.071 27.7798 23.8351 25.0157 23.8351 21.6171V11.6481C23.1327 11.9086 22.3511 12.0672 21.5354 12.0672Z" fill="#FF5634"/>
<path d="M23.8458 21.6171V11.6481C23.1322 11.9086 22.3505 12.0672 21.5462 12.0672C17.8757 12.0672 14.8964 9.09918 14.8964 5.45141C14.8964 4.97561 14.953 4.52247 15.0436 4.06934H6.20742C2.80887 4.06934 0.0560561 6.78817 0.0107422 10.1641C8.16724 13.5286 16.5503 17.6182 23.8005 22.3988C23.8232 22.1382 23.8458 21.8777 23.8458 21.6171Z" fill="#FF5634"/>
<path d="M22.0446 9.78213C24.7068 9.78213 26.8592 7.64105 26.8592 4.99019C26.8592 2.35065 24.7068 0.198242 22.0446 0.198242C19.3824 0.198242 17.23 2.33932 17.23 4.99019C17.23 7.62972 19.3824 9.78213 22.0446 9.78213Z" fill="#FFAA99"/>
<path d="M51.2143 15.8776C51.0248 16.6829 50.705 17.4645 50.255 18.2225C49.8049 18.9568 49.2483 19.62 48.5851 20.2121C47.9219 20.7806 47.1639 21.2425 46.3112 21.5978C45.4585 21.9294 44.5466 22.0952 43.5755 22.0952C42.4623 22.0952 41.4082 21.882 40.4134 21.4556C39.4423 21.0056 38.5777 20.4016 37.8198 19.6437C37.0855 18.8857 36.4934 18.0093 36.0433 17.0145C35.617 15.996 35.4038 14.9064 35.4038 13.7458C35.4038 12.5852 35.617 11.5075 36.0433 10.5127C36.4934 9.49418 37.0855 8.60595 37.8198 7.84799C38.5777 7.09004 39.4423 6.49789 40.4134 6.07154C41.4082 5.6215 42.4623 5.39648 43.5755 5.39648C44.5466 5.39648 45.4585 5.57413 46.3112 5.92942C47.1639 6.26103 47.9219 6.7229 48.5851 7.31506C49.2483 7.88352 49.8049 8.54673 50.255 9.30469C50.705 10.039 51.0248 10.8088 51.2143 11.6141H47.1284C46.9389 11.1877 46.6784 10.8088 46.3468 10.4771C46.0625 10.1929 45.6954 9.93237 45.2454 9.69551C44.7953 9.43496 44.2387 9.30469 43.5755 9.30469C42.4149 9.30469 41.4438 9.70735 40.6621 10.5127C39.8805 11.318 39.4897 12.3957 39.4897 13.7458C39.4897 15.0959 39.8805 16.1736 40.6621 16.979C41.4438 17.7843 42.4149 18.187 43.5755 18.187C44.2387 18.187 44.7953 18.0685 45.2454 17.8317C45.6954 17.5948 46.0625 17.3343 46.3468 17.05C46.6784 16.7184 46.9389 16.3276 47.1284 15.8776H51.2143Z" fill="#121212"/>
<path d="M57.9648 13.7458C57.9648 15.0959 58.3556 16.1736 59.1372 16.979C59.9189 17.7843 60.89 18.187 62.0506 18.187C63.2113 18.187 64.1824 17.7843 64.964 16.979C65.7457 16.1736 66.1365 15.0959 66.1365 13.7458C66.1365 12.3957 65.7457 11.318 64.964 10.5127C64.1824 9.70735 63.2113 9.30469 62.0506 9.30469C60.89 9.30469 59.9189 9.70735 59.1372 10.5127C58.3556 11.318 57.9648 12.3957 57.9648 13.7458ZM70.2223 13.7458C70.2223 14.9064 69.9973 15.996 69.5473 17.0145C69.1209 18.0093 68.5288 18.8857 67.7708 19.6437C67.0366 20.4016 66.172 21.0056 65.1772 21.4556C64.2061 21.882 63.1639 22.0952 62.0506 22.0952C60.9374 22.0952 59.8834 21.882 58.8885 21.4556C57.9174 21.0056 57.0529 20.4016 56.2949 19.6437C55.5607 18.8857 54.9685 18.0093 54.5185 17.0145C54.0921 15.996 53.8789 14.9064 53.8789 13.7458C53.8789 12.5852 54.0921 11.5075 54.5185 10.5127C54.9685 9.49418 55.5607 8.60595 56.2949 7.84799C57.0529 7.09004 57.9174 6.49789 58.8885 6.07154C59.8834 5.6215 60.9374 5.39648 62.0506 5.39648C63.1639 5.39648 64.2061 5.6215 65.1772 6.07154C66.172 6.49789 67.0366 7.09004 67.7708 7.84799C68.5288 8.60595 69.1209 9.49418 69.5473 10.5127C69.9973 11.5075 70.2223 12.5852 70.2223 13.7458Z" fill="#121212"/>
<path d="M81.575 5.39648C82.404 5.39648 83.1146 5.51491 83.7067 5.75178C84.2989 5.96495 84.7844 6.20181 85.1634 6.46236C85.5898 6.77028 85.9332 7.12557 86.1938 7.52823C86.5727 7.12557 87.0109 6.77028 87.5083 6.46236C87.9347 6.20181 88.4439 5.96495 89.0361 5.75178C89.6283 5.51491 90.2796 5.39648 90.9902 5.39648C92.7667 5.39648 94.1878 5.96495 95.2537 7.10188C96.3196 8.23881 96.8525 9.92052 96.8525 12.147V21.9175H92.7667V12.5023C92.7667 11.5075 92.4943 10.7259 91.9495 10.1574C91.4284 9.58892 90.8126 9.30469 90.102 9.30469C89.3914 9.30469 88.7637 9.58892 88.2189 10.1574C87.6978 10.7259 87.4373 11.5075 87.4373 12.5023V21.9175H83.3514V12.5023C83.3514 11.5075 83.0791 10.7259 82.5343 10.1574C82.0132 9.58892 81.3973 9.30469 80.6868 9.30469C79.9762 9.30469 79.3485 9.58892 78.8037 10.1574C78.2826 10.7259 78.0221 11.5075 78.0221 12.5023V21.9175H73.9362V5.57413H76.9562L77.6668 7.17294C77.9984 6.84133 78.3655 6.54526 78.7682 6.28471C79.0998 6.07154 79.5025 5.87021 79.9762 5.68072C80.4499 5.49123 80.9828 5.39648 81.575 5.39648Z" fill="#121212"/>
<path d="M109.643 5.39648C110.661 5.39648 111.633 5.60966 112.556 6.03601C113.48 6.43867 114.285 7.01898 114.972 7.77693C115.683 8.5112 116.24 9.38759 116.642 10.4061C117.069 11.4246 117.282 12.5378 117.282 13.7458C117.282 14.9538 117.069 16.0671 116.642 17.0856C116.24 18.1041 115.683 18.9923 114.972 19.7502C114.285 20.4845 113.48 21.0648 112.556 21.4912C111.633 21.8938 110.661 22.0952 109.643 22.0952C108.956 22.0952 108.352 22.0123 107.831 21.8465C107.334 21.6807 106.895 21.503 106.516 21.3135C106.09 21.0767 105.711 20.8043 105.379 20.4964V27.6022H101.294V5.57413H104.314L105.024 7.17294C105.379 6.84133 105.794 6.54526 106.268 6.28471C106.67 6.07154 107.156 5.87021 107.724 5.68072C108.293 5.49123 108.932 5.39648 109.643 5.39648ZM105.024 13.7458C105.024 15.0959 105.415 16.1736 106.197 16.979C106.978 17.7843 107.949 18.187 109.11 18.187C110.271 18.187 111.242 17.7843 112.023 16.979C112.805 16.1736 113.196 15.0959 113.196 13.7458C113.196 12.3957 112.805 11.318 112.023 10.5127C111.242 9.70735 110.271 9.30469 109.11 9.30469C107.949 9.30469 106.978 9.70735 106.197 10.5127C105.415 11.318 105.024 12.3957 105.024 13.7458Z" fill="#121212"/>
<path d="M127.768 5.39648C128.692 5.39648 129.545 5.56229 130.326 5.89389C131.108 6.20181 131.783 6.64 132.352 7.20847C132.92 7.77693 133.358 8.45199 133.666 9.23363C133.998 10.0153 134.164 10.868 134.164 11.7917V21.9175H131.144L130.433 20.3187C130.054 20.6503 129.64 20.9464 129.19 21.2069C128.787 21.4438 128.301 21.657 127.733 21.8465C127.164 22.0123 126.525 22.0952 125.814 22.0952C124.038 22.0952 122.676 21.6688 121.728 20.8161C120.781 19.9397 120.307 18.8265 120.307 17.4764C120.307 16.6711 120.461 15.9368 120.769 15.2736C121.101 14.5867 121.646 14.0064 122.403 13.5327C123.161 13.0352 124.156 12.6563 125.388 12.3957C126.643 12.1115 128.207 11.9694 130.078 11.9694C130.078 11.0693 129.829 10.3706 129.332 9.87315C128.858 9.37574 128.218 9.12704 127.413 9.12704C126.868 9.12704 126.43 9.22178 126.099 9.41127C125.791 9.60076 125.542 9.80209 125.352 10.0153C125.139 10.2758 124.997 10.5719 124.926 10.9035H120.84C120.935 10.1455 121.148 9.43496 121.48 8.77175C121.835 8.10854 122.309 7.52823 122.901 7.03082C123.493 6.53342 124.192 6.1426 124.997 5.85836C125.826 5.55044 126.75 5.39648 127.768 5.39648ZM126.525 18.8975C127.591 18.8975 128.443 18.5896 129.083 17.9738C129.746 17.3343 130.078 16.5171 130.078 15.5223V14.8117C128.87 14.8117 127.899 14.8709 127.164 14.9893C126.43 15.0841 125.85 15.238 125.423 15.4512C125.021 15.6407 124.748 15.8776 124.606 16.1618C124.464 16.446 124.393 16.7658 124.393 17.1211C124.393 17.5711 124.594 17.9856 124.997 18.3646C125.4 18.7199 125.909 18.8975 126.525 18.8975Z" fill="#121212"/>
<path d="M146.94 5.39648C147.911 5.39648 148.8 5.56229 149.605 5.89389C150.41 6.20181 151.097 6.66369 151.666 7.27953C152.258 7.87168 152.708 8.5941 153.016 9.4468C153.347 10.2995 153.513 11.2588 153.513 12.3247V21.9175H149.427V12.8576C149.427 11.7917 149.107 10.939 148.468 10.2995C147.852 9.63629 147.047 9.30469 146.052 9.30469C145.057 9.30469 144.24 9.63629 143.6 10.2995C142.985 10.939 142.677 11.7917 142.677 12.8576V21.9175H138.591V5.57413H141.611L142.321 7.17294C142.724 6.84133 143.162 6.54526 143.636 6.28471C144.039 6.07154 144.512 5.87021 145.057 5.68072C145.626 5.49123 146.253 5.39648 146.94 5.39648Z" fill="#121212"/>
<path d="M156.192 5.57413H160.455L164.541 16.2329L168.272 5.57413H172.535C171.374 8.55857 170.32 11.2588 169.373 13.6748C168.97 14.717 168.568 15.7355 168.165 16.7303C167.786 17.7251 167.443 18.637 167.135 19.466C166.827 20.2713 166.566 20.9464 166.353 21.4912C166.14 22.0359 166.01 22.3557 165.962 22.4505C165.559 23.4216 165.157 24.2388 164.754 24.902C164.375 25.5889 163.961 26.1455 163.511 26.5718C163.061 26.9982 162.575 27.3061 162.054 27.4956C161.533 27.6851 160.941 27.7798 160.277 27.7798C160.088 27.7798 159.899 27.768 159.709 27.7443C159.543 27.7443 159.401 27.7325 159.283 27.7088C159.117 27.6851 158.975 27.6495 158.856 27.6022V24.2269C159.756 24.2269 160.443 24.0256 160.917 23.6229C161.414 23.2203 161.793 22.711 162.054 22.0952L162.409 21.2069L156.192 5.57413Z" fill="#121212"/>
</svg>
