<svg width="167" height="27" viewBox="0 0 167 27" fill="none" xmlns="http://www.w3.org/2000/svg">
<path d="M57.9159 14.5795C56.7109 16.5342 54.9972 17.6588 52.7747 17.6588C49.5615 17.6588 47.2051 15.0615 47.2051 11.7143C47.2051 8.36719 49.4543 5.79659 52.8283 5.79659C54.9704 5.79659 56.8984 7.00156 57.8624 8.8224L60.9685 6.35891C59.3887 3.54731 56.5235 1.86035 52.8818 1.86035C47.0444 1.86035 42.9475 6.19824 42.9475 11.7143C42.9475 17.2304 47.1247 21.5951 52.8283 21.5951C56.4164 21.5951 59.4154 19.6939 61.0488 16.9894L57.9159 14.5795Z" fill="#121212"/>
<path d="M69.5548 7.21577C65.2704 7.21577 62.1911 10.3219 62.1911 14.392C62.1911 18.4354 65.2704 21.5951 69.5548 21.5951C73.8391 21.5951 76.9185 18.4354 76.9185 14.392C76.9185 10.3219 73.8391 7.21577 69.5548 7.21577ZM69.5548 10.8307C71.4024 10.8307 72.7948 12.2499 72.7948 14.392C72.7948 16.5342 71.4024 17.9802 69.5548 17.9802C67.7071 17.9802 66.3147 16.5342 66.3147 14.392C66.3147 12.2499 67.7071 10.8307 69.5548 10.8307Z" fill="#121212"/>
<path d="M79.5788 7.5371V21.2738H83.6489V14.1243C83.6489 12.3302 84.5861 10.8039 86.2999 10.8039C87.7994 10.8039 88.7634 11.7411 88.7634 13.5352V21.2738H92.8335V14.1243C92.8335 12.3302 93.7707 10.8039 95.4844 10.8039C96.9839 10.8039 97.9211 11.7411 97.9211 13.5352V21.2738H101.991V12.9193C101.991 9.35794 99.983 7.21577 96.6894 7.21577C94.3598 7.21577 93.0477 8.2333 92.0569 9.62571C91.1198 8.09942 89.6202 7.21577 87.5048 7.21577C85.7108 7.21577 84.3719 7.91198 83.4883 9.30439V7.5371H79.5788Z" fill="#121212"/>
<path d="M112.67 10.8039C114.41 10.8039 115.856 12.2231 115.856 14.4456C115.856 16.5878 114.41 18.0069 112.67 18.0069C110.849 18.0069 109.43 16.6145 109.43 14.4456C109.43 12.1963 110.849 10.8039 112.67 10.8039ZM109.242 7.5371H105.467V26.6292H109.537V19.7742C110.394 21.0595 112.027 21.5951 113.5 21.5951C117.249 21.5951 119.953 18.4889 119.953 14.392C119.953 10.1613 117.035 7.21577 113.527 7.21577C112.188 7.21577 110.314 7.77809 109.242 9.43827V7.5371Z" fill="#121212"/>
<path d="M129.744 12.7319L125.995 13.4548C123.103 14.0707 121.523 15.4631 121.523 17.4982C121.523 19.8813 123.397 21.5951 126.075 21.5951C127.896 21.5951 129.235 20.7918 129.878 19.5868V21.2738H133.653V12.6248C133.653 9.27761 131.377 7.21577 127.548 7.21577C124.977 7.21577 122.915 8.28686 121.657 9.81315L123.772 12.3838C124.602 11.4466 125.781 10.7236 127.307 10.7236C128.699 10.7236 129.744 11.2591 129.744 12.6248V12.7319ZM126.986 18.5693C126.022 18.5693 125.406 18.0337 125.406 17.2572C125.406 16.5074 125.941 16.0254 127.039 15.838L129.77 15.3025V15.7041C129.77 17.3375 128.673 18.5693 126.986 18.5693Z" fill="#121212"/>
<path d="M137.082 7.5371V21.2738H141.152V14.1243C141.152 12.3302 142.089 10.8039 143.856 10.8039C145.356 10.8039 146.32 11.7411 146.32 13.5352V21.2738H150.39V12.9193C150.39 9.35794 148.355 7.21577 145.061 7.21577C143.214 7.21577 141.875 7.91198 140.991 9.30439V7.5371H137.082Z" fill="#121212"/>
<path d="M157.036 20.765L156.875 21.2202C156.286 23.1749 155.295 23.523 154.224 23.523C153.769 23.523 153.073 23.4695 152.35 23.0678V26.4417C152.965 26.7363 153.849 26.9505 154.813 26.9505C157.41 26.9505 159.071 25.7188 160.436 22.3984L166.434 7.5371H162.284L159.071 16.5342L155.884 7.5371H151.627L157.036 20.765Z" fill="#121212"/>
<path d="M18.9342 0H14.2125C13.8901 0 13.6287 0.261407 13.6287 0.583869V23.7841C13.6287 24.1065 13.8901 24.3679 14.2125 24.3679H18.9342C19.2567 24.3679 19.5181 24.1065 19.5181 23.7841V0.583869C19.5181 0.261407 19.2567 0 18.9342 0Z" fill="#FF5634"/>
<path d="M27.4203 24.3679C30.1851 24.3679 32.4265 22.1265 32.4265 19.3617C32.4265 16.5968 30.1851 14.3555 27.4203 14.3555C24.6554 14.3555 22.4141 16.5968 22.4141 19.3617C22.4141 22.1265 24.6554 24.3679 27.4203 24.3679Z" fill="#FFCCC2"/>
<path d="M27.4203 10.0124C30.1851 10.0124 32.4265 7.77106 32.4265 5.00621C32.4265 2.24136 30.1851 0 27.4203 0C24.6554 0 22.4141 2.24136 22.4141 5.00621C22.4141 7.77106 24.6554 10.0124 27.4203 10.0124Z" fill="#FFAA99"/>
<path d="M5.7274 24.3679C8.49226 24.3679 10.7336 22.1265 10.7336 19.3617C10.7336 16.5968 8.49226 14.3555 5.7274 14.3555C2.96255 14.3555 0.721191 16.5968 0.721191 19.3617C0.721191 22.1265 2.96255 24.3679 5.7274 24.3679Z" fill="#FF5634"/>
</svg>
