<svg width="171" height="28" viewBox="0 0 171 28" fill="none" xmlns="http://www.w3.org/2000/svg">
<path d="M38.4041 11.7881C38.4041 9.98619 38.8064 8.37672 39.6112 6.95968C40.4334 5.52515 41.5443 4.41427 42.9438 3.62703C44.3608 2.82229 45.9441 2.41992 47.6935 2.41992C49.7403 2.41992 51.5335 2.94475 53.073 3.99441C54.6125 5.04406 55.6884 6.49609 56.3007 8.35048H52.0758C51.656 7.47577 51.0612 6.81973 50.2914 6.38237C49.5392 5.94502 48.6644 5.72634 47.6673 5.72634C46.6001 5.72634 45.6467 5.98001 44.807 6.48734C43.9847 6.97718 43.3374 7.67695 42.8651 8.58665C42.4102 9.49635 42.1828 10.5635 42.1828 11.7881C42.1828 12.9952 42.4102 14.0624 42.8651 14.9896C43.3374 15.8993 43.9847 16.6078 44.807 17.1151C45.6467 17.6049 46.6001 17.8499 47.6673 17.8499C48.6644 17.8499 49.5392 17.6312 50.2914 17.1938C51.0612 16.739 51.656 16.0742 52.0758 15.1995H56.3007C55.6884 17.0714 54.6125 18.5321 53.073 19.5818C51.551 20.614 49.7578 21.13 47.6935 21.13C45.9441 21.13 44.3608 20.7364 42.9438 19.9492C41.5443 19.1444 40.4334 18.0336 39.6112 16.6165C38.8064 15.1995 38.4041 13.59 38.4041 11.7881Z" fill="#121212"/>
<path d="M65.894 21.2088C64.4944 21.2088 63.2348 20.9026 62.1152 20.2903C60.9956 19.6605 60.1121 18.7771 59.4648 17.6399C58.835 16.5028 58.5201 15.1907 58.5201 13.7037C58.5201 12.2167 58.8438 10.9046 59.4911 9.76752C60.1558 8.63039 61.0568 7.75567 62.1939 7.14338C63.3311 6.51358 64.5994 6.19868 65.9989 6.19868C67.3985 6.19868 68.6668 6.51358 69.8039 7.14338C70.9411 7.75567 71.8333 8.63039 72.4806 9.76752C73.1453 10.9046 73.4777 12.2167 73.4777 13.7037C73.4777 15.1907 73.1366 16.5028 72.4543 17.6399C71.7895 18.7771 70.8798 19.6605 69.7252 20.2903C68.5881 20.9026 67.311 21.2088 65.894 21.2088ZM65.894 18.0073C66.5587 18.0073 67.1798 17.8499 67.7571 17.535C68.3519 17.2026 68.8243 16.7127 69.1741 16.0655C69.524 15.4182 69.699 14.6309 69.699 13.7037C69.699 12.3217 69.3316 11.2633 68.5968 10.5285C67.8796 9.77626 66.9961 9.40014 65.9464 9.40014C64.8968 9.40014 64.0133 9.77626 63.2961 10.5285C62.5963 11.2633 62.2464 12.3217 62.2464 13.7037C62.2464 15.0858 62.5876 16.1529 63.2698 16.9052C63.9696 17.6399 64.8443 18.0073 65.894 18.0073Z" fill="#121212"/>
<path d="M94.2267 6.22493C96.0111 6.22493 97.4456 6.776 98.5303 7.87813C99.6324 8.96278 100.183 10.4848 100.183 12.4441V20.9726H96.5097V12.9427C96.5097 11.8056 96.221 10.9396 95.6437 10.3448C95.0664 9.73253 94.2792 9.42638 93.282 9.42638C92.2848 9.42638 91.4888 9.73253 90.894 10.3448C90.3167 10.9396 90.0281 11.8056 90.0281 12.9427V20.9726H86.3543V12.9427C86.3543 11.8056 86.0656 10.9396 85.4883 10.3448C84.911 9.73253 84.1237 9.42638 83.1266 9.42638C82.1119 9.42638 81.3072 9.73253 80.7124 10.3448C80.135 10.9396 79.8464 11.8056 79.8464 12.9427V20.9726H76.1726V6.43486H79.8464V8.19303C80.3187 7.58073 80.9223 7.09964 81.657 6.74975C82.4093 6.39987 83.2315 6.22493 84.1237 6.22493C85.2609 6.22493 86.2755 6.46985 87.1677 6.95968C88.06 7.43203 88.751 8.11431 89.2408 9.00651C89.7132 8.16679 90.3954 7.49326 91.2876 6.98593C92.1973 6.47859 93.177 6.22493 94.2267 6.22493Z" fill="#121212"/>
<path d="M107.343 8.53417C107.816 7.86939 108.463 7.31832 109.285 6.88096C110.125 6.42611 111.079 6.19868 112.146 6.19868C113.388 6.19868 114.507 6.50483 115.505 7.11713C116.519 7.72943 117.315 8.60415 117.893 9.74127C118.487 10.8609 118.785 12.1642 118.785 13.6512C118.785 15.1383 118.487 16.4591 117.893 17.6137C117.315 18.7508 116.519 19.6343 115.505 20.2641C114.507 20.8939 113.388 21.2088 112.146 21.2088C111.079 21.2088 110.134 20.9901 109.312 20.5527C108.507 20.1154 107.851 19.5643 107.343 18.8995V27.9003H103.67V6.43486H107.343V8.53417ZM115.032 13.6512C115.032 12.7765 114.849 12.0243 114.481 11.3945C114.131 10.7472 113.659 10.2574 113.064 9.92496C112.487 9.59257 111.857 9.42638 111.175 9.42638C110.51 9.42638 109.88 9.60132 109.285 9.95121C108.708 10.2836 108.236 10.7734 107.868 11.4207C107.518 12.068 107.343 12.829 107.343 13.7037C107.343 14.5784 107.518 15.3394 107.868 15.9867C108.236 16.634 108.708 17.1326 109.285 17.4825C109.88 17.8149 110.51 17.9811 111.175 17.9811C111.857 17.9811 112.487 17.8061 113.064 17.4562C113.659 17.1064 114.131 16.6078 114.481 15.9605C114.849 15.3132 115.032 14.5435 115.032 13.6512Z" fill="#121212"/>
<path d="M120.51 13.6512C120.51 12.1817 120.798 10.8784 121.376 9.74127C121.97 8.60415 122.766 7.72943 123.764 7.11713C124.778 6.50483 125.907 6.19868 127.149 6.19868C128.233 6.19868 129.178 6.41736 129.983 6.85472C130.805 7.29208 131.461 7.84315 131.951 8.50793V6.43486H135.651V20.9726H131.951V18.847C131.479 19.5293 130.823 20.0979 129.983 20.5527C129.161 20.9901 128.207 21.2088 127.123 21.2088C125.898 21.2088 124.778 20.8939 123.764 20.2641C122.766 19.6343 121.97 18.7508 121.376 17.6137C120.798 16.4591 120.51 15.1383 120.51 13.6512ZM131.951 13.7037C131.951 12.8115 131.776 12.0505 131.426 11.4207C131.076 10.7734 130.604 10.2836 130.009 9.95121C129.414 9.60132 128.776 9.42638 128.093 9.42638C127.411 9.42638 126.781 9.59257 126.204 9.92496C125.627 10.2574 125.154 10.7472 124.787 11.3945C124.437 12.0243 124.262 12.7765 124.262 13.6512C124.262 14.526 124.437 15.2957 124.787 15.9605C125.154 16.6078 125.627 17.1064 126.204 17.4562C126.799 17.8061 127.429 17.9811 128.093 17.9811C128.776 17.9811 129.414 17.8149 130.009 17.4825C130.604 17.1326 131.076 16.6428 131.426 16.013C131.776 15.3657 131.951 14.5959 131.951 13.7037Z" fill="#121212"/>
<path d="M147.295 6.22493C149.027 6.22493 150.427 6.776 151.494 7.87813C152.561 8.96278 153.095 10.4848 153.095 12.4441V20.9726H149.421V12.9427C149.421 11.7881 149.132 10.9046 148.555 10.2923C147.977 9.66255 147.19 9.34765 146.193 9.34765C145.178 9.34765 144.374 9.66255 143.779 10.2923C143.202 10.9046 142.913 11.7881 142.913 12.9427V20.9726H139.239V6.43486H142.913V8.24551C143.403 7.61572 144.024 7.12588 144.776 6.776C145.546 6.40862 146.385 6.22493 147.295 6.22493Z" fill="#121212"/>
<path d="M170.496 6.43486L161.495 27.8478H157.585L160.734 20.6052L154.909 6.43486H159.029L162.781 16.5903L166.586 6.43486H170.496Z" fill="#121212"/>
<path d="M10.8595 27.7064C5.25035 27.7064 0.721191 23.1424 0.721191 17.568C0.721191 11.9937 5.25035 7.42969 10.8595 7.42969C16.4339 7.42969 20.9979 11.9589 20.9979 17.568C20.9631 23.1424 16.4339 27.7064 10.8595 27.7064Z" fill="#FF5634"/>
<path d="M26.2982 0.950195H12.0391C11.3876 0.950195 10.8594 1.47838 10.8594 2.12993V16.389C10.8594 17.0406 11.3876 17.5687 12.0391 17.5687H26.2982C26.9497 17.5687 27.4779 17.0406 27.4779 16.389V2.12993C27.4779 1.47838 26.9497 0.950195 26.2982 0.950195Z" fill="#FFAA99"/>
</svg>
