<svg width="32" height="32" viewBox="0 0 32 32" fill="none" xmlns="http://www.w3.org/2000/svg">
<rect width="32" height="32" rx="6" fill="#FFF5F1"/>
<path d="M20.2912 9.50697C20.2912 8.91511 20.1747 8.32905 19.9482 7.78224C19.7217 7.23543 19.3897 6.73859 18.9712 6.32008C18.5527 5.90157 18.0558 5.56959 17.509 5.3431C16.9622 5.1166 16.3761 5.00003 15.7843 5.00003C15.1924 5.00003 14.6064 5.1166 14.0596 5.3431C13.5127 5.56959 13.0159 5.90157 12.5974 6.32008C12.1789 6.73859 11.8469 7.23543 11.6204 7.78224C11.3939 8.32905 11.2773 8.91511 11.2773 9.50697L13.0768 9.50697C13.0768 9.15142 13.1469 8.79935 13.2829 8.47087C13.419 8.14239 13.6184 7.84392 13.8698 7.59251C14.1212 7.34109 14.4197 7.14166 14.7482 7.0056C15.0767 6.86954 15.4287 6.79951 15.7843 6.79951C16.1398 6.79951 16.4919 6.86954 16.8204 7.0056C17.1489 7.14166 17.4473 7.34109 17.6988 7.59251C17.9502 7.84392 18.1496 8.14239 18.2857 8.47087C18.4217 8.79935 18.4918 9.15142 18.4918 9.50697H20.2912Z" fill="#121212"/>
<rect x="7" y="9.27783" width="17.7222" height="17.7222" rx="2.90278" fill="#FF5634"/>
<path d="M21.7434 18.0625C21.7434 18.8349 21.5912 19.5998 21.2956 20.3134C21 21.027 20.5668 21.6755 20.0206 22.2216C19.4744 22.7678 18.826 23.2011 18.1124 23.4967C17.3987 23.7923 16.6339 23.9444 15.8614 23.9444C15.089 23.9444 14.3241 23.7923 13.6105 23.4967C12.8969 23.2011 12.2485 22.7678 11.7023 22.2216C11.1561 21.6755 10.7228 21.027 10.4272 20.3134C10.1316 19.5998 9.97949 18.8349 9.97949 18.0625L12.328 18.0625C12.328 18.5265 12.4194 18.986 12.5969 19.4147C12.7745 19.8434 13.0348 20.2329 13.3629 20.561C13.691 20.8891 14.0805 21.1494 14.5092 21.327C14.9379 21.5046 15.3974 21.596 15.8614 21.596C16.3255 21.596 16.7849 21.5046 17.2136 21.327C17.6423 21.1494 18.0319 20.8891 18.36 20.561C18.6881 20.2329 18.9484 19.8434 19.1259 19.4147C19.3035 18.986 19.3949 18.5265 19.3949 18.0625H21.7434Z" fill="white"/>
</svg>
